<?xml version="1.0" encoding="utf-8"?>
<!-- Generator: Adobe Illustrator 16.0.0, SVG Export Plug-In . SVG Version: 6.00 Build 0)  -->
<!DOCTYPE svg PUBLIC "-//W3C//DTD SVG 1.1//EN" "http://www.w3.org/Graphics/SVG/1.1/DTD/svg11.dtd">
<svg version="1.1" id="Layer_1" xmlns="http://www.w3.org/2000/svg" xmlns:xlink="http://www.w3.org/1999/xlink" x="0px" y="0px"
	 width="14px" height="17px" viewBox="0 0 14 17" enable-background="new 0 0 14 17" xml:space="preserve">
<g>
	<g>
		<path fill="#D55742" d="M1.229,2.436c0.07-0.551,0.36-1.05,0.803-1.385C2.477,0.717,3.037,0.576,3.587,0.66
			c0.211,0.026,0.362,0.219,0.336,0.43c-0.004,0.03-0.011,0.06-0.022,0.089c-0.37,0.915-0.26,1.954,0.294,2.772
			c0.112,0.177,0.06,0.412-0.118,0.524C4.048,4.494,4.016,4.508,3.983,4.518C3.327,4.756,2.594,4.646,2.037,4.225
			C1.481,3.805,1.176,3.13,1.229,2.436L1.229,2.436z M2.4,5.869C2.333,6.066,2.298,6.274,2.3,6.483L2.7,10.9
			c0.07,0.643,0.525,1.179,1.148,1.353c0.157,0.05,0.273,0.185,0.3,0.347l0.228,2.42c0.018,0.275-0.19,0.514-0.466,0.531
			c-0.013,0.001-0.026,0.002-0.039,0.001H2.488c-0.309,0.007-0.571-0.226-0.6-0.534l-0.315-3.99
			c-0.017-0.204-0.186-0.362-0.391-0.366l-0.26-0.011c-0.294-0.008-0.538-0.231-0.57-0.524L0,6.326
			C0.009,5.81,0.434,5.399,0.95,5.408c0,0,0.001,0,0.001,0h1.108c0.192-0.005,0.353,0.146,0.358,0.339
			c0.001,0.04-0.005,0.08-0.018,0.119V5.869z M10.416,0.66c0.841-0.146,1.683,0.255,2.1,1c0.418,0.746,0.321,1.675-0.24,2.32
			c-0.561,0.644-1.466,0.863-2.258,0.548C9.815,4.467,9.701,4.254,9.763,4.053C9.773,4.02,9.787,3.988,9.807,3.959
			c0.551-0.82,0.661-1.861,0.293-2.779c-0.076-0.2,0.025-0.423,0.226-0.499c0.028-0.011,0.058-0.018,0.088-0.021H10.416z
			 M11.695,6.488c0.002-0.208-0.031-0.416-0.1-0.614c-0.06-0.184,0.041-0.381,0.225-0.441c0.037-0.012,0.076-0.018,0.115-0.017h1.11
			c0.515-0.008,0.939,0.403,0.948,0.918l-0.352,3.8c-0.031,0.292-0.273,0.517-0.567,0.525l-0.261,0.01
			c-0.204,0.005-0.373,0.163-0.39,0.367l-0.315,3.989c-0.027,0.309-0.289,0.541-0.598,0.535H10.13
			c-0.274,0.004-0.501-0.217-0.505-0.491c0-0.015,0-0.028,0.001-0.042l0.224-2.422c0.026-0.162,0.143-0.297,0.301-0.347
			c0.623-0.176,1.077-0.714,1.145-1.358l0.404-4.42L11.695,6.488z M3.237,6.48C3.516,5.706,4.189,5.141,5,5h4
			c0.811,0.141,1.484,0.704,1.768,1.477l-0.4,4.337c-0.035,0.334-0.313,0.591-0.649,0.6l-0.3,0.012
			c-0.233,0.006-0.426,0.186-0.445,0.418l-0.359,4.549C8.58,16.741,8.283,17.006,7.934,17h-1.85c-0.35,0.006-0.646-0.259-0.68-0.607
			l-0.361-4.545c-0.019-0.234-0.211-0.416-0.446-0.422l-0.3-0.011c-0.341-0.009-0.623-0.269-0.66-0.606L3.237,6.48z M8.991,2
			c-0.007,1.099-0.901,1.984-2,1.978c-1.099-0.006-1.984-0.901-1.978-2C5.019,0.885,5.907,0.001,7,0c1.1,0.006,1.989,0.9,1.988,2
			H8.991z"/>
	</g>
</g>
</svg>
