<?xml version="1.0" encoding="utf-8"?>
<!-- Generator: Adobe Illustrator 16.0.0, SVG Export Plug-In . SVG Version: 6.00 Build 0)  -->
<!DOCTYPE svg PUBLIC "-//W3C//DTD SVG 1.1//EN" "http://www.w3.org/Graphics/SVG/1.1/DTD/svg11.dtd">
<svg version="1.1" id="Layer_1" xmlns="http://www.w3.org/2000/svg" xmlns:xlink="http://www.w3.org/1999/xlink" x="0px" y="0px"
	 width="17.348px" height="19px" viewBox="1.826 2 17.348 19" enable-background="new 1.826 2 17.348 19" xml:space="preserve">
<g>
	<g>
		<path fill="#D55742" d="M4.192,7.344c0-2.073,1.68-3.76,3.746-3.76h7.201C14.879,2.65,14.03,2.004,13.062,2H3.995
			c-1.2,0.003-2.17,0.978-2.168,2.176v12.272c-0.001,1.198,0.969,2.173,2.168,2.177h0.197V7.344z"/>
	</g>
	<g>
		<path fill="#D55742" d="M15.426,9.517H9.512c-0.327,0-0.591-0.266-0.591-0.593c0-0.328,0.265-0.594,0.591-0.594h5.915
			c0.324,0,0.591,0.266,0.591,0.595C16.018,9.252,15.753,9.518,15.426,9.517L15.426,9.517z M15.426,12.676H9.512
			c-0.326,0.001-0.591-0.263-0.591-0.59l0,0c0-0.325,0.265-0.588,0.591-0.588h5.915c0.324,0,0.591,0.264,0.591,0.588
			C16.018,12.411,15.753,12.676,15.426,12.676z M15.426,15.455H9.512c-0.327-0.001-0.591-0.267-0.591-0.593
			c0-0.328,0.265-0.596,0.591-0.596h5.915c0.324,0,0.591,0.268,0.591,0.596C16.018,15.188,15.753,15.455,15.426,15.455z
			 M15.426,18.622H9.512c-0.328-0.001-0.592-0.267-0.591-0.595l0,0c0-0.327,0.265-0.594,0.591-0.594h5.915
			c0.324,0,0.591,0.267,0.591,0.594C16.018,18.355,15.753,18.622,15.426,18.622z M17.003,5.164H7.934
			C6.735,5.167,5.765,6.141,5.767,7.34v11.479c-0.002,1.2,0.968,2.175,2.168,2.178h9.068c1.199-0.003,2.17-0.978,2.168-2.178V7.34
			C19.172,6.141,18.202,5.167,17.003,5.164L17.003,5.164z"/>
	</g>
</g>
</svg>
