<?xml version="1.0" encoding="utf-8"?>
<!-- Generator: Adobe Illustrator 16.0.0, SVG Export Plug-In . SVG Version: 6.00 Build 0)  -->
<!DOCTYPE svg PUBLIC "-//W3C//DTD SVG 1.1//EN" "http://www.w3.org/Graphics/SVG/1.1/DTD/svg11.dtd">
<svg version="1.1" id="Layer_1" xmlns="http://www.w3.org/2000/svg" xmlns:xlink="http://www.w3.org/1999/xlink" x="0px" y="0px"
	 width="20px" height="14px" viewBox="0 0 20 14" enable-background="new 0 0 20 14" xml:space="preserve">
<g>
	<g>
		<g>
			<path fill="#D55742" d="M12.799,9.03l-0.658,0.659v2.828h0.658V9.03z"/>
		</g>
		<g>
			<path fill="#D55742" d="M15.43,6.4l-0.66,0.659v5.462h0.66V6.4z"/>
		</g>
		<g>
			<path fill="#D55742" d="M10.159,7.719L9.5,7.06v5.463h0.659V7.719z"/>
		</g>
		<g>
			<path fill="#D55742" d="M7.529,7.06L6.87,7.719v4.805h0.659V7.06z"/>
		</g>
		<g>
			<path fill="#D55742" d="M4.889,9.689L4.23,10.35v2.17h0.659V9.689z"/>
		</g>
		<g>
			<path fill="#D55742" d="M6.216,3.956h-3.96V3.298h3.96V3.956z M12.139,8.761l5.465-5.463h-2.5v-0.66h3.623v3.624h-0.658V3.763
				L16.092,5.74v7.439h-1.977V7.716l-0.658,0.66v4.804H11.48V9.034l-0.66-0.659v4.805H8.845V6.399l-0.33-0.33l-0.33,0.33v6.781H6.21
				V8.375L5.551,9.034v4.146H3.574v-2.17L1.5,13.083l-0.466-0.465l7.48-7.48L12.139,8.761z M0.939,5.933h0.668v0.659H0.938
				L0.939,5.933z M0.939,4.615h0.668v0.65H0.938L0.939,4.615z M0.939,3.298h0.668v0.658H0.938L0.939,3.298z M2.255,5.933h3.961
				v0.659h-3.96L2.255,5.933z M2.255,4.615h3.961v0.65h-3.96L2.255,4.615z M5.028,2.64H0.28v10.87c0,0.182,0.148,0.33,0.33,0.33
				h18.447c0.182,0,0.33-0.147,0.33-0.33V1.98h-13.7L5.028,2.64z"/>
		</g>
		<g>
			<path fill="#D55742" d="M4.24,1.318H3.572v-0.66h0.669L4.24,1.318z M2.924,1.318H2.255v-0.66h0.669V1.318z M1.607,1.318H0.938
				v-0.66h0.669V1.318z M19.057,0H0.608C0.427,0.001,0.28,0.148,0.28,0.33v1.646h4.475l0.66-0.658h13.97V0.329
				C19.385,0.148,19.238,0.001,19.057,0z"/>
		</g>
	</g>
</g>
</svg>
