<?xml version="1.0" encoding="utf-8"?>
<!-- Generator: Adobe Illustrator 16.0.0, SVG Export Plug-In . SVG Version: 6.00 Build 0)  -->
<!DOCTYPE svg PUBLIC "-//W3C//DTD SVG 1.1//EN" "http://www.w3.org/Graphics/SVG/1.1/DTD/svg11.dtd">
<svg version="1.1" id="Layer_1" xmlns="http://www.w3.org/2000/svg" xmlns:xlink="http://www.w3.org/1999/xlink" x="0px" y="0px"
	 width="14px" height="14px" viewBox="0 0 14 14" enable-background="new 0 0 14 14" xml:space="preserve">
<g>
	<g>
		<path fill="#D55742" d="M8,0.063l6,4.973c-0.145,0,0,0.29,0,1v6.963c0,0.552-0.447,1-1,1h-3c-0.502-0.106-0.893-0.499-1-1v-2.983
			C9.16,9.043,8.706,8.595,8,9.02H6c-0.724-0.425-1.178,0.023-1,0.996v2.983c-0.118,0.495-0.505,0.882-1,1H1c-0.552,0-1-0.448-1-1
			V6.036c0-0.705,0.144-1,0-1l6-4.973C6.664-0.021,7.336-0.021,8,0.063"/>
	</g>
</g>
</svg>
