<?xml version="1.0" encoding="utf-8"?>
<!-- Generator: Adobe Illustrator 16.0.0, SVG Export Plug-In . SVG Version: 6.00 Build 0)  -->
<!DOCTYPE svg PUBLIC "-//W3C//DTD SVG 1.1//EN" "http://www.w3.org/Graphics/SVG/1.1/DTD/svg11.dtd">
<svg version="1.1" id="Layer_1" xmlns="http://www.w3.org/2000/svg" xmlns:xlink="http://www.w3.org/1999/xlink" x="0px" y="0px"
	 width="16px" height="14px" viewBox="0 0 16 14" enable-background="new 0 0 16 14" xml:space="preserve">
<g>
	<g>
		<path fill="#AAAAAA" d="M14,3C14.184,3,14,3.2,14,3v11c0-0.195,0.184,0,0,0h1c0.546-0.015,0.985-0.454,1-1V4
			c-0.015-0.546-0.454-0.985-1-1H14z M2,3C2,3.2,1.817,3,2,3H1C0.454,3.015,0.015,3.454,0,4v9c0.015,0.546,0.454,0.984,1,1h1
			c-0.183,0,0-0.195,0,0V3z M9.2,1C9.747,1,10,1.195,10,1v1c0-0.066-0.086,0,0,0H6c0.086,0,0-0.066,0,0V1c0,0.195,0.252,0,0.8,0H9.2
			z M13,14C12.79,14,13,13.8,13,14V3c0-0.068-0.212-0.269,0,0h-1V2c-0.151-1.035-0.965-1.849-2-2H6C4.962,0.147,4.147,0.962,4,2v1H3
			c0.212-0.269,0-0.068,0,0v11c0-0.2,0.211,0,0,0H13z"/>
	</g>
</g>
</svg>
