<?xml version="1.0" encoding="utf-8"?>
<!-- Generator: Adobe Illustrator 16.0.0, SVG Export Plug-In . SVG Version: 6.00 Build 0)  -->
<!DOCTYPE svg PUBLIC "-//W3C//DTD SVG 1.1//EN" "http://www.w3.org/Graphics/SVG/1.1/DTD/svg11.dtd">
<svg version="1.1" id="Layer_1" xmlns="http://www.w3.org/2000/svg" xmlns:xlink="http://www.w3.org/1999/xlink" x="0px" y="0px"
	 width="16px" height="22px" viewBox="0 0 16 22" enable-background="new 0 0 16 22" xml:space="preserve">
<g>
	<g>
		<g>
			<path fill="#BFC5CE" d="M10.67,0v5.5h5.333L10.67,0z"/>
		</g>
		<g>
			<path fill="#BFC5CE" d="M13.323,19.24h-2.656V9.625h2.656V19.24z M9.323,19.24H6.667v-6.865h2.656V19.24z M5.323,19.24H2.667
				v-4.115h2.656V19.24z M10.667,6.875c-0.735,0-1.334-0.617-1.334-1.375V0h-8C0.6,0,0,0.617,0,1.375v19.25
				C0,21.384,0.599,22,1.333,22h13.334C15.402,22,16,21.384,16,20.625V6.875H10.667z"/>
		</g>
	</g>
</g>
</svg>
