<?xml version="1.0" encoding="utf-8"?>
<!-- Generator: Adobe Illustrator 16.0.0, SVG Export Plug-In . SVG Version: 6.00 Build 0)  -->
<!DOCTYPE svg PUBLIC "-//W3C//DTD SVG 1.1//EN" "http://www.w3.org/Graphics/SVG/1.1/DTD/svg11.dtd">
<svg version="1.1" id="Layer_1" xmlns="http://www.w3.org/2000/svg" xmlns:xlink="http://www.w3.org/1999/xlink" x="0px" y="0px"
	 width="24px" height="23px" viewBox="0 0 24 23" enable-background="new 0 0 24 23" xml:space="preserve">
<g>
	<g>
		<g>
			<g>
				<path fill="#BFC5CE" d="M1.816,17.355C-1.554,12.129-0.048,5.16,5.179,1.79C6.892,0.686,8.873,0.067,10.91,0v2.629
					c-4.762,0.203-8.457,4.227-8.254,8.988c0.064,1.504,0.521,2.966,1.324,4.238L1.816,17.355z M11.661,0
					c5.925,0.198,10.683,4.955,10.88,10.88h-2.628c-0.201-4.472-3.781-8.05-8.253-8.25L11.661,0z M10.274,22.477
					c-3.196-0.287-6.118-1.925-8.032-4.5l2.167-1.5c2.497,3.297,6.982,4.356,10.69,2.525c-0.188,0.926-0.109,1.885,0.224,2.77
					C13.716,22.389,11.988,22.631,10.274,22.477L10.274,22.477z M22.54,11.631c-0.04,1.267-0.295,2.517-0.753,3.698
					c-0.883-0.339-1.842-0.419-2.768-0.233c0.537-1.08,0.841-2.26,0.893-3.465H22.54z M19.17,11.256c0,1.53-0.436,2.96-1.191,4.17
					c-1.133,0.502-2.04,1.406-2.547,2.538c-3.705,2.29-8.564,1.144-10.854-2.562C2.288,11.698,3.435,6.838,7.14,4.548
					c1.246-0.77,2.681-1.178,4.146-1.178C15.639,3.375,19.166,6.903,19.17,11.256L19.17,11.256z M9.032,9.754
					c0-0.207-0.168-0.375-0.375-0.376H6.404c-0.208,0-0.376,0.168-0.376,0.376l0,0v5.633c0,0.207,0.168,0.375,0.376,0.375h2.253
					c0.207,0,0.374-0.168,0.375-0.375V9.754z M12.787,6.75c0-0.207-0.168-0.375-0.375-0.376h-2.253
					c-0.208,0-0.376,0.168-0.376,0.376l0,0v8.637c0,0.207,0.168,0.375,0.376,0.375h2.253c0.207,0,0.375-0.168,0.375-0.375V6.75z
					 M16.542,8.252c0-0.207-0.168-0.375-0.375-0.376h-2.253c-0.207,0-0.376,0.168-0.376,0.376l0,0v7.135
					c0,0.207,0.169,0.375,0.376,0.375h2.253c0.207,0,0.374-0.168,0.375-0.375V8.252z"/>
			</g>
		</g>
		<g>
			<g>
				<path fill="#BFC5CE" d="M19.8,20.818c-0.219-0.001-0.396-0.18-0.394-0.398c0-0.22,0.177-0.398,0.394-0.398
					c0.218,0,0.394,0.179,0.394,0.398C20.193,20.641,20.018,20.818,19.8,20.818z M19.416,18.02c0-0.215,0.172-0.391,0.384-0.391
					s0.384,0.176,0.384,0.391v1.263c0,0.214-0.172,0.389-0.384,0.389c-0.214-0.001-0.386-0.177-0.384-0.39l0,0V18.02z
					 M22.499,20.579l-2.149-3.722c-0.111-0.196-0.319-0.316-0.545-0.315c-0.225-0.001-0.434,0.119-0.546,0.315l-2.149,3.722
					c-0.113,0.194-0.113,0.436,0,0.63c0.112,0.196,0.32,0.316,0.547,0.314h4.298c0.226,0.002,0.434-0.119,0.545-0.314
					C22.613,21.015,22.613,20.773,22.499,20.579z M20.468,16.701l2.229,3.859c0.139,0.236,0.139,0.529,0,0.767
					c-0.136,0.237-0.389,0.384-0.663,0.383h-4.458c-0.273,0.001-0.527-0.146-0.663-0.383c-0.138-0.236-0.138-0.528,0-0.765
					l2.229-3.86c0.135-0.238,0.389-0.385,0.662-0.384C20.082,16.318,20.329,16.462,20.468,16.701z M22.964,21.48
					c0.194-0.331,0.194-0.741,0-1.072l-2.229-3.86c-0.189-0.334-0.545-0.54-0.93-0.538c-0.389,0-0.736,0.2-0.93,0.537l-2.23,3.86
					c-0.193,0.331-0.193,0.743,0,1.075c0.195,0.336,0.543,0.537,0.932,0.537h4.458c0.388,0,0.735-0.201,0.93-0.537V21.48z"/>
			</g>
		</g>
	</g>
</g>
</svg>
