<svg xmlns="http://www.w3.org/2000/svg" width="24" height="23" viewBox="0 0 24 23"><g><g><g><g><path fill="#d55742" d="M1.816 17.355A11.26 11.26 0 0 1 10.91 0v2.629a8.629 8.629 0 0 0-6.93 13.227zM11.661 0a11.262 11.262 0 0 1 10.88 10.88h-2.628A8.647 8.647 0 0 0 11.66 2.63zm-1.387 22.476a11.262 11.262 0 0 1-8.032-4.5l2.167-1.5A8.622 8.622 0 0 0 15.1 19.002a5.023 5.023 0 0 0 .223 2.769 11.26 11.26 0 0 1-5.05.705zM22.54 11.631a11.22 11.22 0 0 1-.753 3.698 4.988 4.988 0 0 0-2.768-.233 8.605 8.605 0 0 0 .893-3.465zm-3.37-.375c0 1.53-.436 2.96-1.191 4.17a5.019 5.019 0 0 0-2.547 2.538A7.886 7.886 0 1 1 11.285 3.37a7.895 7.895 0 0 1 7.886 7.886zM9.032 9.754a.376.376 0 0 0-.375-.376H6.404a.376.376 0 0 0-.376.376v5.633c0 .207.168.375.376.375h2.253a.376.376 0 0 0 .375-.375zm3.755-3.004a.376.376 0 0 0-.375-.376h-2.253a.376.376 0 0 0-.376.376v8.637c0 .207.168.375.376.375h2.253a.376.376 0 0 0 .375-.375zm3.755 1.502a.376.376 0 0 0-.375-.376h-2.253a.376.376 0 0 0-.376.376v7.135c0 .207.169.375.376.375h2.253a.376.376 0 0 0 .375-.375z"/></g></g><g><g><path fill="#d55742" d="M19.8 20.819a.397.397 0 0 1-.394-.399c0-.22.177-.399.394-.399.217 0 .394.179.394.399 0 .22-.177.399-.394.399zm-.384-2.8c0-.215.172-.39.384-.39.212 0 .384.175.384.39v1.263c0 .214-.172.389-.384.389a.387.387 0 0 1-.384-.39zm3.083 2.56l-2.149-3.722a.623.623 0 0 0-.545-.315.623.623 0 0 0-.546.315l-2.149 3.722a.623.623 0 0 0 0 .63.623.623 0 0 0 .546.315h4.298a.623.623 0 0 0 .545-.315.623.623 0 0 0 0-.63zm-2.031-3.878l2.229 3.86a.758.758 0 0 1 0 .766.758.758 0 0 1-.663.383h-4.458a.758.758 0 0 1-.663-.383.758.758 0 0 1 0-.765l2.229-3.86a.758.758 0 0 1 .663-.383c.277 0 .524.143.663.382zm2.496 4.78a1.063 1.063 0 0 0 0-1.073l-2.229-3.86a1.063 1.063 0 0 0-.93-.538c-.389 0-.736.2-.93.537l-2.23 3.86a1.063 1.063 0 0 0 0 1.075c.195.336.543.537.931.537h4.458c.388 0 .736-.2.93-.537z"/></g></g></g></g></svg>