<?xml version="1.0" encoding="utf-8"?>
<!-- Generator: Adobe Illustrator 16.0.0, SVG Export Plug-In . SVG Version: 6.00 Build 0)  -->
<!DOCTYPE svg PUBLIC "-//W3C//DTD SVG 1.1//EN" "http://www.w3.org/Graphics/SVG/1.1/DTD/svg11.dtd">
<svg version="1.1" id="Layer_1" xmlns="http://www.w3.org/2000/svg" xmlns:xlink="http://www.w3.org/1999/xlink" x="0px" y="0px"
	 width="18px" height="17px" viewBox="0 0 18 17" enable-background="new 0 0 18 17" xml:space="preserve">
<g>
	<g>
		<g>
			<path fill="#AAAAAA" d="M2.335,5.375L1.906,4.946l0.605-0.605C2.39,4.282,2.256,4.25,2.121,4.25c-0.502,0-0.91,0.407-0.91,0.91
				c0,0.502,0.408,0.91,0.91,0.91s0.91-0.407,0.91-0.91l0,0c0-0.135-0.031-0.269-0.09-0.39L2.335,5.375z"/>
		</g>
		<g>
			<path fill="#AAAAAA" d="M2.335,12.665l-0.429-0.429l0.605-0.605c-0.122-0.059-0.255-0.09-0.39-0.091
				c-0.502,0-0.91,0.407-0.91,0.91s0.408,0.909,0.91,0.909s0.91-0.406,0.91-0.909l0,0c0-0.136-0.031-0.269-0.09-0.39L2.335,12.665z"
				/>
		</g>
		<g>
			<path fill="#AAAAAA" d="M2.335,9.016l-0.429-0.43l0.605-0.605C2.39,7.922,2.256,7.891,2.121,7.89c-0.502,0-0.91,0.407-0.91,0.91
				c0,0.503,0.408,0.91,0.91,0.91s0.91-0.407,0.91-0.91l0,0c0-0.135-0.031-0.268-0.09-0.39L2.335,9.016z"/>
		</g>
		<g>
			<path fill="#AAAAAA" d="M8.5,12.133H4.554v-0.597H8.5V12.133z M8.5,13.357H7.286V12.75H8.5V13.357z M6.679,13.357H4.554V12.75
				h2.125V13.357z M3.39,4.328c0.431,0.654,0.299,1.528-0.306,2.025C2.479,6.849,1.596,6.804,1.044,6.25
				C0.492,5.695,0.448,4.813,0.942,4.205c0.494-0.606,1.367-0.739,2.019-0.307l0.77-0.773l0.43,0.43L3.39,4.328z M3.39,7.968
				c0.463,0.701,0.271,1.646-0.43,2.109s-1.646,0.271-2.109-0.431C0.387,8.946,0.58,8.001,1.281,7.538
				c0.509-0.337,1.17-0.337,1.679,0l0.772-0.77l0.429,0.429L3.39,7.968z M3.643,12.445c0.002,0.842-0.677,1.524-1.518,1.527
				c-0.84,0.002-1.523-0.678-1.526-1.518c-0.002-0.842,0.677-1.524,1.518-1.527c0.3,0,0.594,0.088,0.844,0.254l0.77-0.771
				l0.43,0.429l-0.771,0.77C3.555,11.857,3.643,12.148,3.643,12.445z M0.607,1.821H14.57v0.608H0.607V1.821z M0.607,0.607h0.597
				v0.597H0.607V0.607z M1.821,0.607h0.608v0.597H1.82L1.821,0.607z M3.036,0.607h0.597v0.597H3.036V0.607z M13.357,4.857H10.32
				V4.25h3.037V4.857z M11.536,6.071h-4.25V5.464h4.25V6.071z M11.546,8.5H10.32V7.893h1.225L11.546,8.5z M4.554,4.857V4.25h5.16
				v0.607H4.554z M6.679,5.464v0.607H4.554V5.464H6.679z M6.679,9.107v0.597H4.554V9.107H6.679z M9.714,8.5h-5.16V7.893h5.16V8.5z
				 M9.704,9.704H7.286V9.107h2.418V9.704z M13.661,8.5c0.517,0.001,1.03,0.091,1.519,0.266V0.91c0-0.503-0.408-0.91-0.91-0.91
				c-0.001,0-0.001,0-0.002,0H0.91C0.407,0,0,0.407,0,0.91l0,0v13.357c0,0.504,0.408,0.91,0.91,0.91h8.727
				c-1.176-2.221-0.328-4.975,1.893-6.149C12.187,8.681,12.918,8.5,13.661,8.5z"/>
		</g>
		<g>
			<path fill="#AAAAAA" d="M12.354,14.789c-0.117,0.118-0.31,0.118-0.428,0c-0.023-0.023-0.043-0.051-0.058-0.08l-0.606-1.213
				l0.543-0.271l0.418,0.838l3.342-3.346l0.43,0.43L12.354,14.789z M13.656,9.109c-2.18,0-3.947,1.768-3.947,3.947
				s1.768,3.946,3.947,3.946s3.946-1.767,3.946-3.946S15.836,9.109,13.656,9.109z"/>
		</g>
	</g>
</g>
</svg>
