<svg xmlns="http://www.w3.org/2000/svg" width="21" height="21" viewBox="0 0 21 21"><g><g><g><path fill="#0b4e83" d="M18.365 17.715l-.923-2.03a2.369 2.369 0 0 1-.212-.98V6.893c0-.95.773-1.723 1.723-1.723.95 0 1.723.773 1.723 1.723v7.812c0 .34-.071.67-.212.98l-.922 2.03a.647.647 0 0 1-1.177 0z"/></g><g><path fill="#0b4e83" d="M13.785 18.083c0 .474-.387.86-.862.86H2.585a.863.863 0 0 1-.862-.86V5.169c0-.475.387-.861.862-.861h1.014c.244.506.76.86 1.355.86h5.6c.595 0 1.11-.354 1.355-.86h1.014c.475 0 .862.386.862.86zm-.862-15.498h-.861c0-.624-.267-.862-.647-.862h-1.378A2.38 2.38 0 0 0 7.754 0 2.38 2.38 0 0 0 5.47 1.723H4.092c-.38 0-.646.238-.646.862h-.861A2.588 2.588 0 0 0 0 5.169v12.923a2.588 2.588 0 0 0 2.585 2.585h10.338a2.588 2.588 0 0 0 2.585-2.585V5.17a2.588 2.588 0 0 0-2.585-2.584z"/></g><g><path fill="#0b4e83" d="M6.459 8.828c0-.12.096-.216.215-.216h2.154c.119 0 .215.097.215.216v.646H6.46zm6.033 1.105a1.499 1.499 0 0 0-1.08-.46h-1.076v-.645A1.51 1.51 0 0 0 8.828 7.32H6.674a1.51 1.51 0 0 0-1.508 1.508v.646H4.09c-.424 0-.806.176-1.08.46l4.741 2.473z"/></g><g><path fill="#0b4e83" d="M8.048 13.712a.647.647 0 0 1-.597 0L2.58 11.17v3.692a1.51 1.51 0 0 0 1.508 1.507h7.323a1.51 1.51 0 0 0 1.507-1.507V11.17z"/></g></g></g></svg>