<svg xmlns="http://www.w3.org/2000/svg" width="21" height="21" viewBox="0 0 21 21"><g><g><g><path fill="#9b9b9b" d="M15.08 19.28a4.205 4.205 0 0 1-4.2-4.2c0-2.316 1.884-4.2 4.2-4.2 2.316 0 4.2 1.884 4.2 4.2 0 2.316-1.884 4.2-4.2 4.2zM1.2 16.88V6.04h16.88v4.552a5.37 5.37 0 0 0-3-.912 5.4 5.4 0 0 0-4.53 2.465.596.596 0 0 0-.27-.065h-1.2a.6.6 0 1 0 0 1.2h.909c-.136.382-.23.784-.275 1.2H9.08a.6.6 0 1 0 0 1.2h.634c.046.416.14.818.275 1.2zM3.64 2.44v.6a.6.6 0 1 0 1.2 0v-.6h2.4v.6a.6.6 0 1 0 1.2 0v-.6h2.4v.6a.6.6 0 1 0 1.2 0v-.6h2.4v.6a.6.6 0 1 0 1.2 0v-.6h2.44v2.4H1.2v-2.4zm15.64 9.25V1.84a.6.6 0 0 0-.6-.6h-3.04V.6a.6.6 0 1 0-1.2 0v.64h-2.4V.6a.6.6 0 1 0-1.2 0v.64h-2.4V.6a.6.6 0 1 0-1.2 0v.64h-2.4V.6a.6.6 0 1 0-1.2 0v.64H.6a.6.6 0 0 0-.6.6v15.64a.6.6 0 0 0 .6.6h9.992a5.4 5.4 0 0 0 4.488 2.4c2.978 0 5.4-2.422 5.4-5.4 0-1.283-.45-2.462-1.2-3.39z"/></g><g><path fill="#9b9b9b" d="M17.48 14.48h-1.8v-1.8a.6.6 0 1 0-1.2 0v2.4a.6.6 0 0 0 .6.6h2.4a.6.6 0 1 0 0-1.2z"/></g><g><path fill="#9b9b9b" d="M5.44 7.28h-1.2a.6.6 0 1 0 0 1.2h1.2a.6.6 0 1 0 0-1.2z"/></g><g><path fill="#9b9b9b" d="M5.44 9.68h-1.2a.6.6 0 1 0 0 1.2h1.2a.6.6 0 1 0 0-1.2z"/></g><g><path fill="#9b9b9b" d="M5.44 12.08h-1.2a.6.6 0 1 0 0 1.2h1.2a.6.6 0 1 0 0-1.2z"/></g><g><path fill="#9b9b9b" d="M9.08 8.48h1.2a.6.6 0 1 0 0-1.2h-1.2a.6.6 0 1 0 0 1.2z"/></g><g><path fill="#9b9b9b" d="M9.08 10.88h1.2a.6.6 0 1 0 0-1.2h-1.2a.6.6 0 1 0 0 1.2z"/></g><g><path fill="#9b9b9b" d="M5.44 14.48h-1.2a.6.6 0 1 0 0 1.2h1.2a.6.6 0 1 0 0-1.2z"/></g><g><path fill="#9b9b9b" d="M13.88 8.48h1.2a.6.6 0 1 0 0-1.2h-1.2a.6.6 0 1 0 0 1.2z"/></g></g></g></svg>