<svg xmlns="http://www.w3.org/2000/svg" width="21" height="21" viewBox="0 0 21 21"><g><g><g><path fill="#0b4e83" d="M15.44 9.2a.8.8 0 1 0 0-1.6.8.8 0 0 0 0 1.6z"/></g><g><path fill="#0b4e83" d="M17.28 1.6h-1.04V.8a.8.8 0 1 0-1.6 0v.8H11V.8a.8.8 0 1 0-1.6 0v.8H5.8V.8a.8.8 0 1 0-1.6 0v.8h-1A3.204 3.204 0 0 0 0 4.8v12.48c0 1.764 1.436 3.2 3.2 3.2h6.12a.8.8 0 1 0 0-1.6H3.2c-.882 0-1.6-.718-1.6-1.6V4.8c0-.882.718-1.6 1.6-1.6h1V4a.8.8 0 1 0 1.6 0v-.8h3.6V4A.8.8 0 1 0 11 4v-.8h3.64V4a.8.8 0 1 0 1.6 0v-.8h1.04c.882 0 1.6.718 1.6 1.6v4.56a.8.8 0 1 0 1.6 0V4.8c0-1.764-1.436-3.2-3.2-3.2z"/></g><g><path fill="#0b4e83" d="M15.64 18.88a3.244 3.244 0 0 1-3.24-3.24 3.244 3.244 0 0 1 3.24-3.24 3.244 3.244 0 0 1 3.24 3.24 3.244 3.244 0 0 1-3.24 3.24zm0-8.08a4.845 4.845 0 0 0-4.84 4.84 4.845 4.845 0 0 0 4.84 4.84 4.845 4.845 0 0 0 4.84-4.84 4.845 4.845 0 0 0-4.84-4.84z"/></g><g><path fill="#0b4e83" d="M16.8 14.84h-.36V14a.8.8 0 1 0-1.6 0v1.64a.8.8 0 0 0 .8.8h1.16a.8.8 0 1 0 0-1.6z"/></g><g><path fill="#0b4e83" d="M11.96 9.2a.8.8 0 1 0 0-1.6.8.8 0 0 0 0 1.6z"/></g><g><path fill="#0b4e83" d="M8.48 12.68a.8.8 0 1 0 0-1.6.8.8 0 0 0 0 1.6z"/></g><g><path fill="#0b4e83" d="M5 9.2a.8.8 0 1 0 0-1.6.8.8 0 0 0 0 1.6z"/></g><g><path fill="#0b4e83" d="M5 12.68a.8.8 0 1 0 0-1.6.8.8 0 0 0 0 1.6z"/></g><g><path fill="#0b4e83" d="M5 16.16a.8.8 0 1 0 0-1.6.8.8 0 0 0 0 1.6z"/></g><g><path fill="#0b4e83" d="M8.48 16.16a.8.8 0 1 0 0-1.6.8.8 0 0 0 0 1.6z"/></g><g><path fill="#0b4e83" d="M8.48 9.2a.8.8 0 1 0 0-1.6.8.8 0 0 0 0 1.6z"/></g></g></g></svg>