<svg xmlns="http://www.w3.org/2000/svg" width="23" height="23" viewBox="0 0 23 23"><g><g><g><path fill="#0b4e83" d="M21.186 13.095L18 17.34a3.332 3.332 0 0 1-2.654 1.327H7.044l-2.486-4.972 1.256-1.106a3.325 3.325 0 0 1 4.383 0c.736.648 1.194.77 1.67.77h3.48a.664.664 0 0 1 0 1.328H11.96a.664.664 0 0 0 0 1.327h3.833c.55 0 1.081-.231 1.456-.634l2.921-3.136a.664.664 0 0 1 1.017.85zM5.814 20.668l-.873.437-3.388-6.783.874-.438a.663.663 0 0 1 .89.297l2.794 5.596a.665.665 0 0 1-.297.89zm16.124-9.492c-.757-.625-1.954-.678-2.74.165l-1.95 2.093a1.994 1.994 0 0 0-1.9-1.4h-3.48c-.265 0-.353-.1-.812-.454a4.654 4.654 0 0 0-6.119.014L3.658 12.72a1.982 1.982 0 0 0-1.824-.023l-1.467.734a.664.664 0 0 0-.297.89l3.98 7.961c.165.328.563.46.89.297l1.468-.734a1.989 1.989 0 0 0 1.1-1.85h7.84a4.666 4.666 0 0 0 3.714-1.857l3.185-4.247c.618-.823.52-2.03-.31-2.715z"/></g><g><path fill="#0b4e83" d="M9.335 8.05c0-1.463 1.236-2.698 2.7-2.698 1.464 0 2.655 1.21 2.655 2.698zm2.7-6.723c.72 0 1.33.626 1.33 1.366 0 .729-.597 1.322-1.33 1.322-.745 0-1.375-.606-1.375-1.322 0-.728.643-1.366 1.375-1.366zm1.92 3.2c.453-.476.733-1.12.733-1.83 0-1.46-1.18-2.697-2.653-2.697-1.463 0-2.698 1.235-2.698 2.698 0 .687.27 1.336.758 1.835-1.213.68-2.085 1.985-2.085 3.517v.663c0 .366.297.663.663.663h6.679a.664.664 0 0 0 .663-.663V8.05a4.044 4.044 0 0 0-2.06-3.523z"/></g></g></g></svg>