<svg xmlns="http://www.w3.org/2000/svg" width="21" height="21" viewBox="0 0 21 21"><g><g><g><path fill="#9b9b9b" d="M16.632 3.848a8.98 8.98 0 0 1 2.648 6.392 8.98 8.98 0 0 1-2.648 6.392 8.98 8.98 0 0 1-6.392 2.648 8.98 8.98 0 0 1-6.392-2.648A8.98 8.98 0 0 1 1.2 10.24a8.98 8.98 0 0 1 2.648-6.392A8.98 8.98 0 0 1 10.24 1.2a8.98 8.98 0 0 1 6.392 2.648zm.849 13.633c1.934-1.934 2.999-4.506 2.999-7.241 0-2.735-1.065-5.307-3-7.24a10.173 10.173 0 0 0-7.24-3A10.173 10.173 0 0 0 3 3a10.173 10.173 0 0 0-3 7.24c0 2.735 1.065 5.307 3 7.24 1.933 1.935 4.505 3 7.24 3 2.735 0 5.307-1.065 7.24-3z"/></g><g><path fill="#9b9b9b" d="M9.64 2.4h1.2v1.601h-1.2z"/></g><g transform="rotate(-45 15.5 5)"><path fill="#9b9b9b" d="M14.41 4.66h1.601v1.2H14.41z"/></g><g><path fill="#9b9b9b" d="M16.48 9.64h1.601v1.2H16.48z"/></g><g transform="rotate(-45 15.5 15)"><path fill="#9b9b9b" d="M14.61 14.42h1.2v1.601h-1.2z"/></g><g><path fill="#9b9b9b" d="M9.64 16.48h1.2v1.601h-1.2z"/></g><g transform="rotate(-45 5.5 15.5)"><path fill="#9b9b9b" d="M4.46 14.62h1.601v1.2H4.46z"/></g><g><path fill="#9b9b9b" d="M2.4 9.64h1.601v1.2H2.4z"/></g><g transform="rotate(-45 5 5.5)"><path fill="#9b9b9b" d="M4.66 4.46h1.2v1.601h-1.2z"/></g><g><path fill="#9b9b9b" d="M14.476 10.836H9.64V6h1.2v3.636h3.636z"/></g></g></g></svg>