<svg xmlns="http://www.w3.org/2000/svg" width="14" height="17" viewBox="0 0 14 17"><g><g><path fill="#bfc5ce" d="M1.229 2.436c.07-.551.36-1.05.803-1.385A2.065 2.065 0 0 1 3.587.66a.386.386 0 0 1 .314.519c-.37.915-.26 1.954.294 2.772a.38.38 0 0 1-.212.567 2.061 2.061 0 0 1-1.946-.293 2.05 2.05 0 0 1-.808-1.79zM2.4 5.869a1.856 1.856 0 0 0-.1.614l.4 4.417c.07.643.525 1.179 1.148 1.353.157.05.273.184.3.347l.228 2.419a.5.5 0 0 1-.505.533H2.488a.589.589 0 0 1-.6-.534l-.315-3.99a.4.4 0 0 0-.391-.367l-.26-.01a.589.589 0 0 1-.57-.525L0 6.326a.934.934 0 0 1 .951-.918h1.108a.349.349 0 0 1 .341.458zM10.416.66a2.011 2.011 0 0 1 2.099 1 2.025 2.025 0 0 1-.24 2.32 2.009 2.009 0 0 1-2.258.548.381.381 0 0 1-.211-.569c.552-.82.662-1.861.293-2.779a.387.387 0 0 1 .314-.52zm1.28 5.828a1.86 1.86 0 0 0-.1-.614.35.35 0 0 1 .34-.458h1.11a.934.934 0 0 1 .948.918l-.351 3.8a.588.588 0 0 1-.568.525l-.26.01a.4.4 0 0 0-.39.367l-.315 3.99a.588.588 0 0 1-.598.534H10.13a.498.498 0 0 1-.504-.533l.224-2.421a.436.436 0 0 1 .3-.347 1.584 1.584 0 0 0 1.145-1.359l.404-4.42zM3.237 6.48A2.29 2.29 0 0 1 5 5h4a2.3 2.3 0 0 1 1.767 1.477l-.4 4.337a.67.67 0 0 1-.649.6l-.3.012a.458.458 0 0 0-.446.418l-.359 4.548a.672.672 0 0 1-.68.608H6.084a.673.673 0 0 1-.68-.607l-.361-4.545a.459.459 0 0 0-.446-.422l-.3-.011a.682.682 0 0 1-.66-.607zM8.991 2A1.989 1.989 0 1 1 7 0a2 2 0 0 1 1.989 2z"/></g></g></svg>