<svg xmlns="http://www.w3.org/2000/svg" width="16" height="20" viewBox="0 0 16 20"><g><g><g><path fill="#7f8fa4" d="M12.632 17.482a.584.584 0 0 1-.584.556H3.162a.584.584 0 0 1-.584-.556L2.075 6.93h11.06zM1.17 4.3c0-.161.131-.292.293-.292h12.276c.162 0 .293.13.293.292v1.462H1.169zm4.677-2.046c0-.323.262-.585.583-.585h2.332c.321 0 .583.262.583.585v.584H5.846zm7.892.584h-3.215v-.584C10.523 1.287 9.736.5 8.77.5H6.431c-.967 0-1.754.787-1.754 1.754v.584H1.462C.656 2.838 0 3.494 0 4.3v2.046c0 .323.262.585.585.585h.32l.504 10.606c.045.937.814 1.67 1.752 1.67h8.878c.938 0 1.707-.733 1.752-1.67l.505-10.606h.32a.585.585 0 0 0 .584-.585V4.3c0-.806-.656-1.462-1.462-1.462z"/></g><g><path fill="#7f8fa4" d="M7.605 16.87a.585.585 0 0 0 .584-.585v-7.6a.585.585 0 1 0-1.169 0v7.6c0 .322.262.584.585.584z"/></g><g><path fill="#7f8fa4" d="M10.525 16.87a.585.585 0 0 0 .584-.585v-7.6a.585.585 0 0 0-1.169 0v7.6c0 .322.262.584.585.584z"/></g><g><path fill="#7f8fa4" d="M4.675 16.87a.585.585 0 0 0 .584-.585v-7.6a.585.585 0 0 0-1.169 0v7.6c0 .322.262.584.585.584z"/></g></g></g></svg>