<svg xmlns="http://www.w3.org/2000/svg" width="20" height="25" viewBox="0 0 20 25"><g><g><g opacity=".47"><path fill="#7f8fa4" d="M18.34 21.413c0 1.117-.877 2.022-1.994 2.022h-13.3A1.992 1.992 0 0 1 1.05 21.44V2.98c0-1.118.904-1.996 1.995-1.996h10.72v4.629c0 .266.212.505.505.505h4.07zM14.777 1.809l2.953 3.315h-2.953zm4.549 3.617c-.027 0-.027-.026-.053-.053-.027-.026-.027-.053-.053-.08L14.643.16c-.026-.027-.08-.054-.106-.08-.027 0-.027-.027-.053-.027A.501.501 0 0 0 14.27 0H3.046A3.02 3.02 0 0 0 .04 3.006V21.44a3.02 3.02 0 0 0 3.006 3.005h13.3a3.02 3.02 0 0 0 3.006-3.005V5.613c0-.054-.027-.133-.027-.187z"/></g><g opacity=".47"><path fill="#7f8fa4" d="M3.635 6.12h4.443a.505.505 0 0 0 .505-.505.49.49 0 0 0-.505-.505H3.635a.505.505 0 1 0 0 1.01z"/></g><g opacity=".47"><path fill="#7f8fa4" d="M8.078 18.33H3.635a.505.505 0 1 0 0 1.01h4.443a.505.505 0 0 0 .505-.505.523.523 0 0 0-.505-.505z"/></g><g opacity=".47"><path fill="#7f8fa4" d="M3.13 8.965c0 .266.213.506.505.506H15.5a.505.505 0 1 0 0-1.011H3.635a.505.505 0 0 0-.505.505z"/></g><g opacity=".47"><path fill="#7f8fa4" d="M15.499 10.96H3.635a.505.505 0 1 0 0 1.01H15.5a.505.505 0 0 0 .505-.505.49.49 0 0 0-.505-.505z"/></g><g opacity=".47"><path fill="#7f8fa4" d="M15.499 13.43H3.635a.505.505 0 1 0 0 1.01H15.5a.505.505 0 0 0 .505-.505.49.49 0 0 0-.505-.505z"/></g><g opacity=".47"><path fill="#7f8fa4" d="M15.499 15.91H3.635a.505.505 0 1 0 0 1.01H15.5a.505.505 0 1 0 0-1.01z"/></g></g></g></svg>