<svg xmlns="http://www.w3.org/2000/svg" width="26" height="26" viewBox="0 0 26 26"><g><g clip-path="url(#clip-2FFE33CE-2B13-4D5A-8EB1-25D099B7DF34)"><g><g><path fill="#0b4e83" d="M13 25.8c7.07 0 12.8-5.73 12.8-12.8S20.07.2 13 .2.2 5.93.2 13 5.93 25.8 13 25.8z"/></g></g></g><g><g><path fill="#fff" d="M20.36 17.319h-6.144v-1.024h1.536a.512.512 0 0 0 0-1.024h-1.536v-1.024h1.536a.512.512 0 0 0 0-1.024h-1.536v-1.024h1.536a.512.512 0 0 0 0-1.024h-1.536V10.15h1.536a.512.512 0 0 0 0-1.024h-1.536V8.103h6.144zm-8.319-2.897a.511.511 0 1 1-.77.674l-1.489-1.701-1.306 1.68a.514.514 0 0 1-.718.088.513.513 0 0 1-.09-.719l1.427-1.835L7.687 11a.511.511 0 1 1 .771-.673l1.278 1.46 1.517-1.95a.513.513 0 0 1 .807.63l-1.638 2.105zm8.831-7.343h-6.656V5.543a.51.51 0 0 0-.606-.503L5.418 6.576A.51.51 0 0 0 5 7.079v11.264c0 .245.175.457.418.502l8.192 1.536a.51.51 0 0 0 .606-.503v-1.535h6.656c.283 0 .512-.23.512-.512V7.59a.512.512 0 0 0-.512-.512z"/></g><g><path fill="#fff" d="M18.826 9.13h-1.024a.512.512 0 0 0 0 1.024h1.024a.512.512 0 0 0 0-1.024z"/></g><g><path fill="#fff" d="M18.826 11.18h-1.024a.512.512 0 0 0 0 1.024h1.024a.512.512 0 0 0 0-1.024z"/></g><g><path fill="#fff" d="M18.826 13.22h-1.024a.512.512 0 0 0 0 1.024h1.024a.512.512 0 0 0 0-1.024z"/></g><g><path fill="#fff" d="M18.826 15.27h-1.024a.512.512 0 0 0 0 1.024h1.024a.512.512 0 0 0 0-1.024z"/></g></g></g></svg>