<svg xmlns="http://www.w3.org/2000/svg" width="31" height="31" viewBox="0 0 31 31"><defs><clipPath id="7zgxa"><path d="M15.36 30.86c8.483 0 15.36-6.877 15.36-15.36S23.843.14 15.36.14 0 7.017 0 15.5s6.877 15.36 15.36 15.36z"/></clipPath></defs><g><g><g><g><path fill="#59b58d" d="M15.36 30.86c8.483 0 15.36-6.877 15.36-15.36S23.843.14 15.36.14 0 7.017 0 15.5s6.877 15.36 15.36 15.36z"/></g><g clip-path="url(#7zgxa)"><g><path fill="#fff" d="M11.779 19.58h-.469v1.875h.469a.155.155 0 0 0 .156-.156v-1.563a.155.155 0 0 0-.156-.156z"/></g><g><path fill="#fff" d="M14.909 19.58h-.313a.155.155 0 0 0-.156.156V21.3c0 .087.069.156.156.156h.313a.155.155 0 0 0 .156-.156v-1.563a.155.155 0 0 0-.156-.156z"/></g><g><path fill="#fff" d="M17.719 21.453h.937a.469.469 0 0 1 0 .937h-.937c-.603 0-1.094-.49-1.094-1.094v-1.562c0-.603.49-1.094 1.094-1.094h.937a.469.469 0 0 1 0 .938h-.937a.156.156 0 0 0-.157.156v1.562c0 .087.07.157.157.157zM16 21.296c0 .6-.494 1.094-1.094 1.094h-.312c-.6 0-1.094-.494-1.094-1.094v-1.562c0-.6.494-1.094 1.094-1.094h.312c.6 0 1.094.494 1.094 1.094zm-3.125 0c0 .6-.494 1.094-1.094 1.094h-.937a.472.472 0 0 1-.469-.469V19.11c0-.257.212-.469.469-.469h.937c.6 0 1.094.494 1.094 1.094zm6.406-2.968a5.479 5.479 0 0 1-5.468-5.47 5.46 5.46 0 0 1 1.993-4.218H10.22c-.95 0-1.719.769-1.719 1.719V21.92c0 .95.769 1.719 1.719 1.719h9.062c.95 0 1.719-.769 1.719-1.719v-3.868a5.561 5.561 0 0 1-1.719.275z"/></g><g><path fill="#fff" d="M21.311 12.02l-2.187 2.5a.626.626 0 0 1-.45.214h-.02a.624.624 0 0 1-.442-.183l-1.25-1.25a.624.624 0 1 1 .884-.884l.777.777 1.748-1.997a.626.626 0 0 1 .94.824zM19.28 8.64a4.223 4.223 0 0 0-4.219 4.219 4.223 4.223 0 0 0 4.219 4.219 4.223 4.223 0 0 0 4.218-4.22A4.223 4.223 0 0 0 19.28 8.64z"/></g></g></g></g></g></svg>