<svg xmlns="http://www.w3.org/2000/svg" width="19" height="21" viewBox="0 0 19 21"><g><g><g><path fill="#0b4e83" d="M13.185 8.888a.808.808 0 0 0-.808-.808h-8.32a.808.808 0 1 0 0 1.615h8.32a.808.808 0 0 0 .808-.807z"/></g><g><path fill="#0b4e83" d="M4.058 11.31a.808.808 0 1 0 0 1.615H9.11a.808.808 0 1 0 0-1.615z"/></g><g><path fill="#0b4e83" d="M5.952 19.062H3.251c-.89 0-1.616-.725-1.616-1.616V3.231c0-.891.725-1.616 1.616-1.616h9.93c.89 0 1.615.725 1.615 1.616v4.967a.808.808 0 1 0 1.616 0V3.231C16.412 1.449 14.962 0 13.18 0H3.25A3.234 3.234 0 0 0 .02 3.23v14.216c0 1.782 1.45 3.23 3.23 3.23h2.702a.808.808 0 1 0 0-1.614z"/></g><g><path fill="#0b4e83" d="M16.71 13.992l-.157.157-1.15-1.15.157-.156a.814.814 0 0 1 1.15 1.149zm-4.283 4.248l-1.64.453.48-1.577 2.992-2.978 1.143 1.14zm5.416-6.541a2.426 2.426 0 0 0-3.426-.001l-4.434 4.425a.808.808 0 0 0-.202.337l-.966 3.179a.808.808 0 0 0 .988 1.013l3.26-.903a.807.807 0 0 0 .355-.207l4.425-4.417a2.426 2.426 0 0 0 0-3.426z"/></g><g><path fill="#0b4e83" d="M12.377 4.85h-8.32a.808.808 0 1 0 0 1.615h8.32a.808.808 0 1 0 0-1.615z"/></g></g></g></svg>