<svg xmlns="http://www.w3.org/2000/svg" width="20" height="14" viewBox="0 0 20 14"><g><g><g><path fill="#bfc5ce" d="M12.799 9.03l-.659.659v2.828h.659z"/></g><g><path fill="#bfc5ce" d="M15.429 6.4l-.659.659v5.463h.659z"/></g><g><path fill="#bfc5ce" d="M10.159 7.719L9.5 7.06v5.464h.659z"/></g><g><path fill="#bfc5ce" d="M7.529 7.06l-.659.659v4.805h.659z"/></g><g><path fill="#bfc5ce" d="M4.889 9.69l-.659.659v2.17h.659z"/></g><g><path fill="#bfc5ce" d="M6.216 3.956h-3.96v-.658h3.96zm5.923 4.805l5.464-5.463h-2.5v-.66h3.624v3.624h-.658V3.763L16.092 5.74v7.44h-1.977V7.716l-.658.66v4.804H11.48V9.034l-.659-.659v4.805H8.845V6.399l-.33-.33-.33.33v6.781H6.21V8.375l-.659.659v4.146H3.574v-2.17L1.5 13.083l-.466-.465 7.48-7.48zM.939 5.933h.668v.659H.938zm0-1.318h.668v.65H.938zm0-1.317h.668v.658H.938zm1.316 2.635h3.961v.659h-3.96zm0-1.318h3.961v.65h-3.96zM5.028 2.64H.28v10.87c0 .182.148.33.33.33h18.446a.33.33 0 0 0 .33-.33V1.98H5.687z"/></g><g><path fill="#bfc5ce" d="M4.24 1.318h-.668v-.66h.669zm-1.316 0h-.669v-.66h.669zm-1.317 0H.938v-.66h.669zM19.057 0H.608A.33.33 0 0 0 .28.33v1.646h4.475l.66-.658h13.97V.329A.33.33 0 0 0 19.057 0z"/></g></g></g></svg>