<svg xmlns="http://www.w3.org/2000/svg" width="34" height="31" viewBox="0 0 34 31"><g><g><g><path fill="#0b4e83" d="M25.844 25.161H7.756c-1.748 0-2.824-1.9-1.936-3.396L14.866 6.64A2.23 2.23 0 0 1 16.8 5.54c.802 0 1.525.411 1.936 1.103l9.043 15.12c.89 1.5-.189 3.398-1.935 3.398zm3.223-4.166l-9.043-15.12A3.717 3.717 0 0 0 16.8 4.04a3.716 3.716 0 0 0-3.223 1.833L4.532 20.997c-1.485 2.5.314 5.664 3.224 5.664h18.088c2.906 0 4.711-3.16 3.223-5.666z"/><path fill="none" stroke="#0b4e83" stroke-miterlimit="20" stroke-width=".4" d="M25.844 25.161H7.756c-1.748 0-2.824-1.9-1.936-3.396L14.866 6.64A2.23 2.23 0 0 1 16.8 5.54c.802 0 1.525.411 1.936 1.103l9.043 15.12c.89 1.5-.189 3.398-1.935 3.398zm3.223-4.166l-9.043-15.12A3.717 3.717 0 0 0 16.8 4.04a3.716 3.716 0 0 0-3.223 1.833L4.532 20.997c-1.485 2.5.314 5.664 3.224 5.664h18.088c2.906 0 4.711-3.16 3.223-5.666z"/></g><g><path fill="#0b4e83" d="M16.8 22.16a.75.75 0 1 1 .001-1.502.75.75 0 0 1-.001 1.502zm0-3c-1.24 0-2.25 1.01-2.25 2.25s1.01 2.25 2.25 2.25 2.25-1.01 2.25-2.25-1.01-2.25-2.25-2.25z"/></g><g><path fill="#0b4e83" d="M17.55 15.41a.75.75 0 0 1-1.5 0v-4.5a.75.75 0 0 1 1.5 0zm-.75-6.75c-1.24 0-2.25 1.01-2.25 2.25v4.5c0 1.24 1.01 2.249 2.25 2.249s2.25-1.01 2.25-2.25v-4.5c0-1.24-1.01-2.249-2.25-2.249z"/></g></g></g></svg>