<svg xmlns="http://www.w3.org/2000/svg" width="16" height="16" viewBox="0 0 16 16"><g><g><path fill="#bfc5ce" d="M4.824 4.99a.567.567 0 0 1-.698-.142.555.555 0 0 1 0-.706.567.567 0 0 1 .698-.143h6.352a.567.567 0 0 1 .698.143c.17.205.17.5 0 .706a.567.567 0 0 1-.698.143zM4.8 9.01a.553.553 0 0 1-.677-.155.565.565 0 0 1 0-.7A.553.553 0 0 1 4.8 8h4.4a.553.553 0 0 1 .677.154.565.565 0 0 1 0 .7.553.553 0 0 1-.677.155zM5.064 7a.649.649 0 1 1 0-1h5.873a.649.649 0 1 1 0 1zm3.353 6h4.573A3 3 0 0 0 16 10V3a3 3 0 0 0-3.01-3H3.01A3 3 0 0 0 0 3v7a3 3 0 0 0 3.01 3H4v1.991a1 1 0 0 0 .603.927A3.519 3.519 0 0 0 5.8 15.4l2.4-1.8c.287-.215.353-.439.217-.6zM5 16zm0 0a1 1 0 0 1-.397-.082c-.197.044-.4.072-.603.082z"/></g></g></svg>