<svg xmlns="http://www.w3.org/2000/svg" width="16" height="14" viewBox="0 0 16 14"><g><g><path fill="#bfc5ce" d="M14 3c.183 0 0 .2 0 0v11c0-.195.183 0 0 0h1a1.028 1.028 0 0 0 1-1V4a1.028 1.028 0 0 0-1-1zM2 3c0 .2-.183 0 0 0H1a1.028 1.028 0 0 0-1 1v9c.015.546.454.985 1 1h1c-.183 0 0-.195 0 0zm7.2-2c.547 0 .8.195.8 0v1c0-.066-.086 0 0 0H6c.086 0 0-.066 0 0V1c0 .195.252 0 .8 0zM13 14c-.21 0 0-.2 0 0V3c0-.068-.212-.269 0 0h-1V2a2.368 2.368 0 0 0-2-2H6a2.354 2.354 0 0 0-2 2v1H3c.212-.269 0-.068 0 0v11c0-.2.211 0 0 0z"/></g></g></svg>