<svg xmlns="http://www.w3.org/2000/svg" width="22" height="21" viewBox="0 0 22 21"><g><g><g><path fill="#9b9b9b" d="M20.244 17.384c-4.336.093-7.411 1.125-8.862 1.734V5.438c.98-.458 4.139-1.745 8.862-1.853zM1.26 3.587c4.404.116 7.797 1.412 8.862 1.869v13.692c-1.501-.596-4.737-1.663-8.862-1.764zm2.1-2.29c1.993.116 3.716.787 5.131 2 .138.118.266.236.385.352A26.606 26.606 0 0 0 3.36 2.468zm14.784 0v1.156c-2.299.221-4.137.689-5.44 1.123.097-.093.2-.186.308-.279 1.415-1.213 3.139-1.884 5.132-2zm2.73 1.023c-.506 0-.997.013-1.47.037V.65a.63.63 0 0 0-.63-.63c-3.232 0-5.389 1.28-6.629 2.354a9.276 9.276 0 0 0-1.393 1.504 9.276 9.276 0 0 0-1.394-1.504C8.118 1.3 5.961.02 2.73.02a.63.63 0 0 0-.63.63v1.712A25.923 25.923 0 0 0 .63 2.32a.63.63 0 0 0-.63.63v15.056c0 .348.282.63.63.63 5.636 0 9.782 2.006 9.843 2.035a.63.63 0 0 0 .584-.014c.037-.02 3.714-2.02 9.817-2.02a.63.63 0 0 0 .63-.63V2.95a.63.63 0 0 0-.63-.63z"/></g><g><path fill="#9b9b9b" d="M13.27 17.278a.63.63 0 0 0 .187-.029c1.544-.48 3.21-.803 4.952-.962a.63.63 0 1 0-.114-1.254c-1.83.166-3.583.507-5.212 1.013a.63.63 0 0 0 .187 1.232z"/></g><g><path fill="#9b9b9b" d="M13.27 14.758a.63.63 0 0 0 .187-.029c1.544-.48 3.21-.803 4.952-.962a.63.63 0 1 0-.114-1.254c-1.83.166-3.583.507-5.212 1.013a.63.63 0 0 0 .187 1.232z"/></g><g><path fill="#9b9b9b" d="M13.27 12.238a.63.63 0 0 0 .187-.029c1.544-.48 3.21-.803 4.952-.962a.63.63 0 1 0-.114-1.254c-1.83.166-3.583.507-5.212 1.013a.63.63 0 0 0 .187 1.232z"/></g><g><path fill="#9b9b9b" d="M13.27 9.718a.63.63 0 0 0 .187-.029c1.544-.48 3.21-.803 4.952-.962a.63.63 0 1 0-.114-1.254c-1.83.166-3.583.507-5.212 1.013a.63.63 0 0 0 .187 1.232z"/></g><g><path fill="#9b9b9b" d="M13.27 7.198a.63.63 0 0 0 .187-.029c1.544-.48 3.21-.803 4.952-.962a.63.63 0 1 0-.114-1.254c-1.83.166-3.583.507-5.212 1.013a.63.63 0 0 0 .187 1.232z"/></g><g><path fill="#9b9b9b" d="M8.399 16.046a25.307 25.307 0 0 0-5.212-1.013.63.63 0 1 0-.114 1.254c1.741.159 3.407.482 4.952.962a.63.63 0 1 0 .374-1.203z"/></g><g><path fill="#9b9b9b" d="M8.399 13.526a25.306 25.306 0 0 0-5.212-1.013.63.63 0 0 0-.114 1.254c1.741.159 3.407.482 4.952.962a.63.63 0 1 0 .374-1.203z"/></g><g><path fill="#9b9b9b" d="M8.399 11.006a25.306 25.306 0 0 0-5.212-1.013.63.63 0 1 0-.114 1.255c1.741.158 3.407.481 4.952.961a.63.63 0 1 0 .374-1.203z"/></g><g><path fill="#9b9b9b" d="M3.76 6.279c1.33.156 2.61.41 3.822.757v1.212a25.504 25.504 0 0 0-3.822-.717zm-.687 2.448c1.741.158 3.407.482 4.952.962a.629.629 0 0 0 .817-.602v-2.52a.63.63 0 0 0-.443-.601 25.307 25.307 0 0 0-5.212-1.013.63.63 0 0 0-.687.627V8.1a.63.63 0 0 0 .573.627z"/></g></g></g></svg>