<svg xmlns="http://www.w3.org/2000/svg" width="31" height="31" viewBox="0 0 31 31"><g><g><g><g><path fill="#4a90e2" d="M15.36 30.86c8.483 0 15.36-6.877 15.36-15.36S23.843.14 15.36.14 0 7.017 0 15.5s6.877 15.36 15.36 15.36z"/></g></g><g><g><path fill="#fff" d="M11.532 17.681c0-.301-.223-.481-.616-.481-.16 0-.27.015-.326.03v.967c.067.014.15.019.264.019.42 0 .678-.199.678-.534z"/></g><g><path fill="#fff" d="M13.957 17.21c-.176 0-.29.014-.357.03v2.143c.067.014.176.014.274.014.715.005 1.18-.364 1.18-1.147.005-.68-.42-1.04-1.097-1.04z"/></g><g><path fill="#fff" d="M18.462 18.019v.601h-1.253v1.314h-.791v-3.268h2.132v.606h-1.34v.747zm-5.648 1.9v-3.21c.29-.043.67-.067 1.07-.067.664 0 1.095.111 1.432.349.364.252.592.654.592 1.232 0 .625-.244 1.057-.581 1.323-.369.287-.93.422-1.615.422-.41 0-.7-.024-.898-.048zm8.5 3.05H10.719c-.439 0-.797-.336-.797-.749v-.866H19.8c.458 0 .83-.348.83-.779v-4.724c0-.43-.372-.779-.83-.779H9.921V7.924c0-.412.358-.748.797-.748l7.295-.007V9.7c0 .74.639 1.34 1.427 1.34l2.641-.006.03 11.185c0 .413-.357.75-.796.75zM9.807 16.71a6.93 6.93 0 0 1 1.066-.067c.486 0 .833.087 1.065.262a.933.933 0 0 1 .373.756c0 .32-.114.592-.32.776-.27.237-.668.344-1.134.344a2.18 2.18 0 0 1-.27-.014v1.168h-.78zM18.484 5.99h-7.766c-1.134 0-2.058.868-2.058 1.933v7.149h-.2c-.459 0-.83.349-.83.78v4.724c0 .43.371.779.83.779h.2v.866c0 1.066.924 1.933 2.058 1.933h10.597c1.134 0 2.057-.867 2.057-1.933V10.565z"/></g></g></g></g></svg>