<?xml version="1.0" encoding="utf-8"?>
<!-- Generator: Adobe Illustrator 16.0.0, SVG Export Plug-In . SVG Version: 6.00 Build 0)  -->
<!DOCTYPE svg PUBLIC "-//W3C//DTD SVG 1.1//EN" "http://www.w3.org/Graphics/SVG/1.1/DTD/svg11.dtd">
<svg version="1.1" id="Layer_1" xmlns="http://www.w3.org/2000/svg" xmlns:xlink="http://www.w3.org/1999/xlink" x="0px" y="0px"
	 width="31px" height="31px" viewBox="0 0 31 31" enable-background="new 0 0 31 31" xml:space="preserve">
<g>
	<g>
		<g>
			<path fill="#4A90E2" d="M15.36,30.859c8.483,0,15.361-6.877,15.361-15.359c0-8.483-6.878-15.36-15.361-15.36S0,7.017,0,15.5
				C0,23.982,6.877,30.859,15.36,30.859z"/>
		</g>
	</g>
	<path fill="#FFFFFF" d="M21.314,22.969H10.719c-0.439,0-0.797-0.336-0.797-0.748v-0.867H19.8c0.458,0,0.83-0.348,0.83-0.778v-4.724
		c0-0.43-0.372-0.779-0.83-0.779H9.921V7.924c0-0.412,0.358-0.748,0.797-0.748l7.296-0.007V9.7c0,0.74,0.639,1.34,1.426,1.34
		l2.642-0.006l0.03,11.185C22.111,22.632,21.754,22.969,21.314,22.969L21.314,22.969z M18.484,5.99h-7.767
		c-1.134,0-2.058,0.868-2.058,1.933v7.149h-0.2c-0.459,0-0.83,0.349-0.83,0.78v4.724c0,0.43,0.371,0.779,0.83,0.779h0.2v0.865
		c0,1.066,0.924,1.934,2.058,1.934h10.597c1.135,0,2.058-0.867,2.058-1.934V10.565L18.484,5.99z"/>
	<g>
		<path fill="#4A90E2" d="M9.867,16.708c0.232-0.04,0.557-0.069,1.015-0.069c0.463,0,0.794,0.089,1.016,0.267
			c0.212,0.167,0.355,0.443,0.355,0.769s-0.109,0.602-0.306,0.789c-0.256,0.241-0.636,0.35-1.08,0.35
			c-0.099,0-0.187-0.005-0.256-0.015v1.188H9.867V16.708z M10.611,18.216c0.064,0.015,0.143,0.02,0.251,0.02
			c0.399,0,0.646-0.202,0.646-0.542c0-0.306-0.212-0.487-0.586-0.487c-0.153,0-0.256,0.015-0.311,0.029V18.216z"/>
		<path fill="#4A90E2" d="M12.73,16.708c0.232-0.04,0.557-0.069,1.015-0.069c0.463,0,0.794,0.089,1.016,0.267
			c0.212,0.167,0.355,0.443,0.355,0.769s-0.109,0.602-0.306,0.789c-0.256,0.241-0.636,0.35-1.08,0.35
			c-0.099,0-0.187-0.005-0.256-0.015v1.188H12.73V16.708z M13.475,18.216c0.064,0.015,0.143,0.02,0.251,0.02
			c0.399,0,0.646-0.202,0.646-0.542c0-0.306-0.212-0.487-0.586-0.487c-0.153,0-0.256,0.015-0.311,0.029V18.216z"/>
		<path fill="#4A90E2" d="M16.234,17.294h-0.892v-0.631h2.552v0.631h-0.906v2.691h-0.754V17.294z"/>
	</g>
</g>
</svg>
