<svg xmlns="http://www.w3.org/2000/svg" width="17" height="16" viewBox="0 0 17 16"><g><g><g><path fill="#7f8fa4" d="M13.167 8.004a.666.666 0 0 0-.667.666v5.334a.667.667 0 0 1-.667.666H2.5a.667.667 0 0 1-.667-.666V4.67c0-.367.299-.667.667-.667h5.333a.666.666 0 1 0 0-1.333H2.5c-1.103 0-2 .897-2 2v9.334c0 1.102.897 2 2 2h9.333c1.103 0 2-.898 2-2V8.67a.666.666 0 0 0-.666-.666z"/></g><g><path fill="#7f8fa4" d="M6.75 7.395a.337.337 0 0 0-.092.17l-.472 2.357a.334.334 0 0 0 .393.392l2.357-.471a.332.332 0 0 0 .17-.092l5.275-5.274-2.357-2.357z"/></g><g><path fill="#7f8fa4" d="M16.01.488a1.668 1.668 0 0 0-2.357 0l-.923.922 2.357 2.357.922-.923c.315-.314.488-.733.488-1.178 0-.445-.173-.864-.488-1.178z"/></g></g></g></svg>