<svg xmlns="http://www.w3.org/2000/svg" width="21" height="21" viewBox="0 0 21 21"><g><g><g><path fill="#0b4e83" d="M10.5 19.688c-5.066 0-9.188-4.122-9.188-9.188 0-5.066 4.122-9.188 9.188-9.188 5.066 0 9.188 4.122 9.188 9.188 0 5.066-4.122 9.188-9.188 9.188zM10.5 0C4.71 0 0 4.71 0 10.5S4.71 21 10.5 21 21 16.29 21 10.5 16.29 0 10.5 0z"/></g><g><path fill="#0b4e83" d="M10.504 4.59a5.915 5.915 0 0 0-5.791 4.749L3.81 8.135l-1.05.788 1.969 2.625a.655.655 0 0 0 .918.13L8.273 9.71l-.787-1.05-1.516 1.137a4.597 4.597 0 0 1 4.535-3.895c1.635 0 3.16.882 3.98 2.3l1.136-.657a5.927 5.927 0 0 0-5.116-2.955z"/></g><g><path fill="#0b4e83" d="M16.258 10.087a.655.655 0 0 0-.919-.105l-2.494 1.968.814 1.03 1.363-1.077a4.598 4.598 0 0 1-4.527 3.844c-1.634 0-3.16-.88-3.979-2.298l-1.136.658a5.928 5.928 0 0 0 5.115 2.952c2.887 0 5.291-2.082 5.802-4.822l1.036 1.295 1.025-.82z"/></g></g></g></svg>