<svg xmlns="http://www.w3.org/2000/svg" width="18" height="17" viewBox="0 0 18 17"><g><g><g><path fill="#bfc5ce" d="M2.335 5.375l-.429-.429.605-.605a.898.898 0 0 0-.39-.091.91.91 0 1 0 .91.91.898.898 0 0 0-.09-.39z"/></g><g><path fill="#bfc5ce" d="M2.335 12.665l-.429-.429.605-.605a.898.898 0 0 0-.39-.091.91.91 0 1 0 .91.91.898.898 0 0 0-.09-.39z"/></g><g><path fill="#bfc5ce" d="M2.335 9.015l-.429-.429.605-.605a.898.898 0 0 0-.39-.091.91.91 0 1 0 .91.91.898.898 0 0 0-.09-.39z"/></g><g><path fill="#bfc5ce" d="M8.5 12.133H4.554v-.597H8.5zm0 1.224H7.286v-.607H8.5zm-1.821 0H4.554v-.607h2.125zM3.39 4.328a1.53 1.53 0 0 1-.306 2.025 1.52 1.52 0 0 1-2.04-.103 1.53 1.53 0 0 1-.102-2.045 1.52 1.52 0 0 1 2.019-.307l.77-.773.43.43zm0 3.64a1.522 1.522 0 1 1-.43-.43l.772-.77.429.429zm.253 4.478a1.522 1.522 0 1 1-.682-1.265l.77-.77.43.429-.771.77c.165.248.253.539.253.836zM.607 1.821h13.964v.608H.607zm0-1.214h.597v.597H.607zm1.214 0h.608v.597H1.82zm1.215 0h.597v.597h-.597zm10.321 4.25h-3.036V4.25h3.036zm-1.821 1.214h-4.25v-.607h4.25zm.01 2.429H10.32v-.607h1.225zM4.554 4.857V4.25h5.16v.607zm2.125.607v.607H4.554v-.607zm0 3.643v.597H4.554v-.597zM9.714 8.5h-5.16v-.607h5.16zm-.01 1.204H7.286v-.597h2.418zM13.661 8.5c.517.001 1.03.091 1.518.266V.91A.91.91 0 0 0 14.268 0H.91A.91.91 0 0 0 0 .91v13.358c0 .503.408.91.91.91h8.726A4.55 4.55 0 0 1 13.661 8.5z"/></g><g><path fill="#bfc5ce" d="M12.354 14.789a.303.303 0 0 1-.486-.08l-.606-1.213.543-.272.418.838 3.342-3.345.429.429zm1.302-5.679a3.946 3.946 0 1 0 0 7.893 3.946 3.946 0 0 0 0-7.893z"/></g></g></g></svg>