<svg xmlns="http://www.w3.org/2000/svg" width="16" height="19" viewBox="0 0 16 19"><g><g><g><path fill="#0b4e83" d="M6.247.837h6.164V4.18H6.247zM5.41 4.598v.043a.397.397 0 0 0 .418.375h7.043a.397.397 0 0 0 .375-.418V.418.377A.397.397 0 0 0 12.83 0H5.786a.397.397 0 0 0-.375.418z"/></g><g><path fill="#0b4e83" d="M6.247 10.872V7.525H14.5v3.347zm9.09.416v-4.18-.042a.397.397 0 0 0-.418-.375H5.786a.397.397 0 0 0-.375.418v4.18.042a.397.397 0 0 0 .418.375h9.133a.397.397 0 0 0 .375-.418z"/></g><g><path fill="#0b4e83" d="M6.246 17.55v-3.343h6.165v3.343zm7.001-3.761v-.043a.397.397 0 0 0-.418-.375H5.786a.397.397 0 0 0-.375.418v4.18.042a.397.397 0 0 0 .418.375h7.043a.397.397 0 0 0 .375-.418z"/></g><g><path fill="#0b4e83" d="M1.88 3.249a.985.985 0 0 1-.962-.988c0-.537.427-.975.962-.987.546 0 .991.439 1.003.987a1.006 1.006 0 0 1-1.003.988zm.983 5.95c0 .545-.44.987-.982.988H1.88A.985.985 0 0 1 .918 9.2c0-.538.427-.976.962-.988.542 0 .982.442.983.987zm.01 6.934a1 1 0 0 1-.998.982.98.98 0 0 1-.977-.982.98.98 0 0 1 .977-.983 1 1 0 0 1 .998.983zM3.654 1.86a1.818 1.818 0 0 0-3.592.395A1.776 1.776 0 0 0 1.44 4.033v3.385a1.818 1.818 0 0 0 0 3.553v3.385c-.824.189-1.4.932-1.38 1.777a1.818 1.818 0 1 0 2.216-1.777v-3.385a1.797 1.797 0 0 0 1.4-1.776 1.797 1.797 0 0 0-1.4-1.777V4.033A1.818 1.818 0 0 0 3.654 1.86z"/></g><g><path fill="#0b4e83" d="M7.088 2.296h2.403a.418.418 0 1 0 0-.836H7.088a.418.418 0 1 0 0 .836z"/></g><g><path fill="#0b4e83" d="M11.581 2.72H7.088a.418.418 0 1 0 0 .836h4.493a.418.418 0 1 0 0-.836z"/></g><g><path fill="#0b4e83" d="M7.088 8.986h2.403a.418.418 0 1 0 0-.836H7.088a.418.418 0 1 0 0 .836z"/></g><g><path fill="#0b4e83" d="M7.088 10.236h4.493a.418.418 0 1 0 0-.836H7.088a.418.418 0 1 0 0 .836z"/></g><g><path fill="#0b4e83" d="M7.088 15.676h2.403a.418.418 0 1 0 0-.836H7.088a.418.418 0 1 0 0 .836z"/></g><g><path fill="#0b4e83" d="M7.088 16.926h4.493a.418.418 0 1 0 0-.836H7.088a.418.418 0 1 0 0 .836z"/></g></g></g></svg>