<svg xmlns="http://www.w3.org/2000/svg" width="26" height="17" viewBox="0 0 26 17"><g><g><g><path fill="#7f8fa4" d="M12.8 15.169c-5.127 0-9.567-4.877-10.881-6.471 1.313-1.596 5.743-6.47 10.88-6.47 5.127 0 9.567 4.876 10.882 6.47-1.313 1.596-5.744 6.47-10.881 6.47zM25.437 8.2C25.21 7.887 19.76.54 12.8.54 5.84.54.39 7.887.162 8.2a.845.845 0 0 0 0 .996c.229.313 5.678 7.66 12.638 7.66s12.409-7.347 12.637-7.66a.844.844 0 0 0 0-.996z"/></g><g><path fill="#7f8fa4" d="M12.804 12.081a3.381 3.381 0 0 1-3.378-3.377 3.381 3.381 0 0 1 3.378-3.378 3.381 3.381 0 0 1 3.377 3.378 3.381 3.381 0 0 1-3.377 3.377zm0-8.441A5.07 5.07 0 0 0 7.74 8.704a5.07 5.07 0 0 0 5.064 5.063 5.07 5.07 0 0 0 5.064-5.063 5.07 5.07 0 0 0-5.064-5.064z"/></g></g></g></svg>