<?xml version="1.0" encoding="utf-8"?>
<!-- Generator: Adobe Illustrator 16.0.0, SVG Export Plug-In . SVG Version: 6.00 Build 0)  -->
<!DOCTYPE svg PUBLIC "-//W3C//DTD SVG 1.1//EN" "http://www.w3.org/Graphics/SVG/1.1/DTD/svg11.dtd">
<svg version="1.1" id="Layer_1" xmlns="http://www.w3.org/2000/svg" xmlns:xlink="http://www.w3.org/1999/xlink" x="0px" y="0px"
	 width="31px" height="31px" viewBox="0 0 31 31" enable-background="new 0 0 31 31" xml:space="preserve">
<g>
	<g>
		<g>
			<path fill="#4A90E2" d="M15.36,30.859c8.483,0,15.361-6.877,15.361-15.359c0-8.483-6.878-15.36-15.361-15.36S0,7.017,0,15.5
				C0,23.982,6.877,30.859,15.36,30.859z"/>
		</g>
	</g>
	<path fill="#FFFFFF" d="M21.314,22.969H10.719c-0.439,0-0.797-0.336-0.797-0.748v-0.867H19.8c0.458,0,0.83-0.348,0.83-0.778v-4.724
		c0-0.43-0.372-0.779-0.83-0.779H9.921V7.924c0-0.412,0.358-0.748,0.797-0.748l7.296-0.007V9.7c0,0.74,0.639,1.34,1.426,1.34
		l2.642-0.006l0.03,11.185C22.111,22.632,21.754,22.969,21.314,22.969L21.314,22.969z M18.484,5.99h-7.767
		c-1.134,0-2.058,0.868-2.058,1.933v7.149h-0.2c-0.459,0-0.83,0.349-0.83,0.78v4.724c0,0.43,0.371,0.779,0.83,0.779h0.2v0.865
		c0,1.066,0.924,1.934,2.058,1.934h10.597c1.135,0,2.058-0.867,2.058-1.934V10.565L18.484,5.99z"/>
	<g>
		<path fill="#4A90E2" d="M11.617,19.985l-0.3-0.602c-0.124-0.231-0.202-0.404-0.296-0.596h-0.01
			c-0.069,0.191-0.153,0.364-0.256,0.596l-0.276,0.602H9.621l0.961-1.681l-0.927-1.642h0.863l0.291,0.606
			c0.099,0.202,0.172,0.365,0.251,0.552h0.01c0.079-0.212,0.143-0.359,0.227-0.552l0.281-0.606h0.857l-0.937,1.622l0.986,1.7H11.617
			z"/>
		<path fill="#4A90E2" d="M12.888,16.663h0.754v2.691h1.321v0.631h-2.075V16.663z"/>
		<path fill="#4A90E2" d="M15.431,19.212c0.202,0.104,0.512,0.207,0.833,0.207c0.346,0,0.527-0.144,0.527-0.36
			c0-0.207-0.158-0.325-0.557-0.468c-0.552-0.192-0.912-0.498-0.912-0.981c0-0.566,0.473-1,1.257-1c0.373,0,0.65,0.079,0.848,0.167
			l-0.168,0.606c-0.133-0.063-0.369-0.157-0.695-0.157c-0.324,0-0.482,0.147-0.482,0.32c0,0.212,0.188,0.306,0.615,0.468
			c0.586,0.217,0.863,0.522,0.863,0.991c0,0.557-0.43,1.029-1.342,1.029c-0.379,0-0.753-0.098-0.94-0.201L15.431,19.212z"/>
	</g>
</g>
</svg>
